<svg width="15" height="16" viewBox="0 0 15 16" fill="none" xmlns="http://www.w3.org/2000/svg">
<path d="M5.02645 2.27918H9.97363C9.97363 2.58871 9.97363 2.89151 9.97363 3.19476C9.97363 3.74259 10.2245 4.10273 10.7086 4.25189C11.2099 4.40643 11.7798 4.23308 12.0276 3.81336C12.12 3.65658 12.1572 3.45188 12.1734 3.26464C12.1975 2.9905 12.1734 2.71234 12.1852 2.43641C12.1878 2.37997 12.261 2.28008 12.3017 2.28008C12.7018 2.28008 13.1124 2.24424 13.5007 2.32084C14.4056 2.49957 14.9909 3.26195 14.9935 4.23621C15.0014 7.33547 15.0027 10.4347 14.9917 13.534C14.9878 14.683 14.1595 15.4982 13.038 15.4986C9.34588 15.4995 5.65377 15.5 1.96167 15.4986C0.839238 15.4986 0.0118626 14.6834 0.00792269 13.534C-0.00258366 10.4347 -0.00302142 7.33547 0.00792269 4.23621C0.0118626 3.07606 0.822165 2.27874 1.95379 2.27157C2.18011 2.27022 2.40643 2.27784 2.63232 2.26843C2.77284 2.26261 2.82844 2.30785 2.82319 2.45791C2.81399 2.72622 2.81793 2.99543 2.821 3.26419C2.82713 3.87473 3.28459 4.3043 3.92504 4.30385C4.5668 4.3034 5.02383 3.87159 5.02602 3.26195C5.02733 2.94258 5.02602 2.62275 5.02602 2.27874L5.02645 2.27918ZM13.966 5.99704H1.03492V6.25864C1.03492 8.6412 1.03492 11.0242 1.03492 13.4068C1.03492 14.1235 1.34836 14.4447 2.04922 14.4451C5.69098 14.4451 9.33231 14.4451 12.9741 14.4451C13.6434 14.4451 13.966 14.1145 13.966 13.4292C13.966 11.039 13.966 8.64882 13.966 6.25864V5.99749V5.99704Z" fill="#C49153"/>
<path d="M3.14227 2.27066C3.14227 1.93516 3.13833 1.60011 3.14315 1.2646C3.14927 0.82697 3.44126 0.52327 3.86765 0.501769C4.32073 0.478924 4.67445 0.736487 4.69152 1.17412C4.71997 1.89574 4.71997 2.61961 4.69458 3.34123C4.67926 3.78065 4.32774 4.04673 3.88034 4.02702C3.4417 4.00776 3.14752 3.70226 3.14227 3.25433C3.13833 2.92644 3.14139 2.59855 3.14139 2.27066H3.14227Z" fill="#C49153"/>
<path d="M11.8582 2.25195C11.8582 2.58746 11.8613 2.92251 11.8573 3.25802C11.8521 3.70416 11.5544 4.0101 11.1162 4.02757C10.6693 4.04549 10.3212 3.77807 10.3059 3.33775C10.2805 2.62374 10.2805 1.90704 10.3059 1.19259C10.3217 0.743308 10.6758 0.476787 11.1368 0.501871C11.5619 0.524716 11.8525 0.830656 11.8578 1.26874C11.8617 1.59662 11.8587 1.92451 11.8587 2.2524L11.8582 2.25195Z" fill="#C49153"/>
<path d="M7.14957 10.8281C7.30761 10.6435 7.42055 10.4966 7.54881 10.3645C8.43397 9.45382 9.3222 8.54585 10.2104 7.63789C10.4468 7.39645 10.604 7.36599 10.889 7.53442C11.2195 7.72972 11.4957 7.98997 11.5938 8.37967C11.6244 8.50151 11.5907 8.6977 11.5093 8.78236C10.0839 10.2601 8.64717 11.7257 7.21174 13.1932C7.19685 13.2084 7.17496 13.2156 7.14126 13.2357C6.76653 12.8536 6.39005 12.4702 6.01445 12.0863C5.36919 11.4265 4.72348 10.7667 4.07909 10.1065C3.87159 9.89369 3.84445 9.77319 3.96921 9.50757C4.13644 9.15191 4.39735 8.88763 4.75456 8.73264C4.94587 8.64977 5.11397 8.67351 5.27069 8.83701C5.81746 9.40723 6.37385 9.96805 6.92369 10.5356C6.99548 10.6095 7.05108 10.6995 7.14957 10.8281Z" fill="#C49153"/>
</svg>
