<svg width="72" height="96" viewBox="0 0 72 96" fill="none" xmlns="http://www.w3.org/2000/svg">
<path d="M62.8376 54.5989V73.1744H68.0778C68.1067 72.5461 68.1573 71.9179 68.1573 71.2861C68.1645 67.5566 68.1718 63.827 68.1573 60.0975C68.1537 59.0974 68.3452 58.0901 69.5342 58.314C70.0546 58.4115 70.763 59.4332 70.7666 60.0434C70.8389 69.369 70.8606 78.6946 70.7774 88.0167C70.7449 91.6848 67.8212 94.4504 64.1205 94.4576C50.391 94.4901 36.6616 94.4793 22.9285 94.4576C20.6047 94.4576 19.0941 93.1182 18.711 90.8183C17.2799 82.2328 15.8632 73.6437 14.4465 65.0546C13.955 62.0796 15.762 60.0036 18.9821 59.9711C23.9187 59.9206 28.859 59.9567 33.7957 59.9567C34.4462 59.9567 35.1003 59.9567 35.993 59.9567C35.993 58.5956 35.993 57.4114 35.993 56.2272C35.993 52.0174 36.04 47.8041 35.9785 43.5944C35.9352 40.5544 37.1856 38.2763 39.6684 36.6011C40.8646 35.7923 42.0789 35.0089 43.2318 34.1424C44.9737 32.8354 45.7326 31.0952 45.2086 28.9254C43.7413 22.8274 43.8425 16.7872 45.729 10.7795C45.8736 10.3174 45.7905 9.57365 45.5013 9.21983C44.2365 7.67458 44.3413 5.93437 44.793 4.24832C45.1616 2.86915 46.3036 2.07125 47.7818 2.05681C51.515 2.0207 55.2554 1.91961 58.9778 2.12541C59.9789 2.18317 61.3088 3.03523 61.8112 3.91255C62.7002 5.46141 62.6822 7.35326 61.5076 8.84796C60.8824 9.64225 60.8716 10.2344 61.1354 11.0972C62.8737 16.7295 63.0833 22.423 61.7389 28.178C61.0161 31.2757 61.5365 33.1098 64.3048 34.5865C69.4728 37.3448 71.605 41.4029 70.8533 47.1687C70.622 48.945 70.763 50.7755 70.8317 52.5771C70.8895 54.0754 70.2028 54.6386 68.7789 54.6133C66.8563 54.5772 64.9373 54.6061 62.8303 54.6061L62.8376 54.5989ZM31.902 62.697C27.8688 62.697 23.8356 62.697 19.7988 62.697C17.2401 62.697 16.9004 63.123 17.3269 65.7044C18.646 73.7015 19.9759 81.6913 21.2625 89.6919C21.4901 91.1144 22.0973 91.7643 23.626 91.7462C29.1048 91.6848 34.5836 91.6993 40.0623 91.739C41.4465 91.7498 42.0789 91.2624 42.3066 89.8219C43.6365 81.4638 45.0641 73.1202 46.4554 64.773C46.7048 63.2747 46.0073 62.6789 44.5473 62.6862C40.3334 62.7114 36.1195 62.6934 31.902 62.6934V62.697Z" stroke="#FFE7CA" stroke-width="2" stroke-linecap="round" stroke-linejoin="round"/>
<path d="M2.00006 20.7154C1.97476 10.4438 10.2652 2.07489 20.4891 2.04962C30.7962 2.02434 39.2709 10.4582 39.2384 20.7081C39.2059 30.9219 30.8287 39.2439 20.5831 39.2439C10.2688 39.2439 2.02536 31.023 2.00006 20.7117V20.7154Z" stroke="#FFE7CA" stroke-width="4" stroke-linecap="round" stroke-linejoin="round"/>
<path d="M22.4487 21.1517L22.7178 20.7962L29.3459 12.0446L29.3463 12.0441C29.504 11.8364 29.5707 11.5801 29.5347 11.3214C29.4987 11.0621 29.3655 10.8343 29.1569 10.6762C28.9489 10.5185 28.6921 10.4518 28.4326 10.4878C28.1729 10.5238 27.9449 10.6569 27.7868 10.8648L22.4487 21.1517ZM22.4487 21.1517L22.771 21.4596M22.4487 21.1517L22.771 21.4596M22.771 21.4596L30.2776 28.6311L30.2741 28.6382L30.5409 28.8933C30.9306 29.2659 30.9445 29.8839 30.5729 30.2723C30.3888 30.4631 30.1287 30.5736 29.8637 30.5736C29.6093 30.5736 29.3711 30.4788 29.1855 30.3033C29.1853 30.3031 29.185 30.3029 29.1848 30.3026L21.6622 23.1123L21.2567 22.7248M22.771 21.4596L21.2567 22.7248M21.2567 22.7248L20.9181 23.1719M21.2567 22.7248L20.9181 23.1719M20.9181 23.1719L14.6056 31.5068C14.6054 31.507 14.6053 31.5072 14.6051 31.5075C14.4205 31.749 14.1262 31.895 13.8249 31.895C13.6105 31.895 13.4083 31.827 13.2327 31.6957M20.9181 23.1719L13.2327 31.6957M13.2327 31.6957C12.8048 31.3721 12.72 30.759 13.0453 30.3285L13.2327 31.6957ZM21.3647 19.3456L27.7863 10.8654L13.0456 30.3282L19.5685 21.7177L19.8378 21.3624L19.5154 21.0543L10.9504 12.8697C10.9504 12.8696 10.9503 12.8696 10.9503 12.8696C10.5607 12.4969 10.5469 11.879 10.9185 11.4906C11.1018 11.3005 11.3436 11.1946 11.602 11.1893C11.8717 11.1874 12.1209 11.2819 12.3039 11.4578L12.3049 11.4588L20.6207 19.4053L21.0262 19.7928L21.3647 19.3456Z" fill="#FFF2E2" stroke="#FFE7CA"/>
</svg>
