<svg width="54" height="60" viewBox="0 0 54 60" fill="none" xmlns="http://www.w3.org/2000/svg">
<path d="M3.65562 24.7684C2.79745 24.7684 2.13098 24.7684 1.46673 24.7684C0.512715 24.7684 0.0111876 24.2982 0.00895863 23.3468C0.0022716 20.3882 -0.00887345 17.4319 0.0134167 14.4734C0.0223327 13.3845 0.490425 13.0163 1.77211 13.0163C7.15962 13.0096 12.5449 13.0141 17.9324 13.0119C18.3337 13.0119 18.7371 13.0119 19.4615 13.0119C18.9154 12.5594 18.5922 12.2933 18.2712 12.0249C17.2035 11.1378 16.5059 10.0179 16.3053 8.64948C15.8037 5.20304 18.7482 2.79452 22.0828 3.87458C23.4559 4.32036 24.4567 5.21413 25.2636 6.36072C25.7295 7.02384 26.1798 7.69805 26.6189 8.34121C27.7222 6.62686 28.7587 4.88811 29.9223 3.23808C31.1148 1.54813 32.7241 0.42149 34.8372 0.084386C38.952 -0.572079 42.0704 2.71468 41.1609 6.76658C40.762 8.54081 39.7923 9.94467 38.3702 11.0469C37.5856 11.6546 36.7676 12.2223 35.769 12.952C36.3552 12.9786 36.7364 13.0096 37.1175 13.0096C42.0949 13.0141 47.0745 13.0096 52.0519 13.0141C53.6813 13.0141 53.9956 13.3334 53.9978 14.9613C54.0023 17.6226 54.0023 20.2862 53.9978 22.9475C53.9956 24.4224 53.6479 24.7595 52.1589 24.7684C51.6083 24.7706 51.0578 24.7684 50.3489 24.7684C50.3489 25.2873 50.3489 25.7153 50.3489 26.1434C50.3489 36.6801 50.3489 47.219 50.3489 57.7557C50.3489 59.7162 50.0636 60.0001 48.1021 60.0001C34.0214 60.0001 19.943 60.0001 5.86234 60.0001C3.96768 60.0001 3.66008 59.6985 3.66008 57.8222C3.66008 47.2855 3.66008 36.7466 3.66008 26.2099V24.7684H3.65562ZM21.5613 57.4031V24.8504H6.27471V57.4031H21.5635H21.5613ZM32.4076 24.8171V57.3765H47.7187V24.8171H32.4076ZM29.8376 57.3986C29.8376 56.9174 29.8376 56.4849 29.8376 56.0524C29.8376 42.9986 29.8376 29.9447 29.8376 16.8886C29.8376 16.5936 29.8888 16.2809 29.8086 16.0059C29.7506 15.8107 29.5188 15.5268 29.3583 15.5224C27.6665 15.4869 25.9725 15.5002 24.2294 15.5002V57.3964H29.8376V57.3986ZM2.51882 22.2068H21.5835V15.5889H2.51882V22.2068ZM51.4367 22.2534V15.5579H32.4321V22.2534H51.4367ZM38.8116 5.75527C38.8272 3.70825 37.6614 2.36871 35.9272 2.53948C34.8573 2.64593 33.5957 3.06066 32.849 3.77922C30.6623 5.8839 29.2045 8.51641 28.3664 11.435C27.9162 13.0008 28.275 13.3068 29.9067 12.8256C32.684 12.005 35.1315 10.5679 37.2958 8.665C38.2499 7.82668 38.7692 6.73996 38.8138 5.75305L38.8116 5.75527ZM25.6225 12.8988C24.9204 10.3904 24.0176 8.03071 21.8243 6.48048C21.0352 5.92382 20.0634 5.85063 19.2565 6.60024C18.5677 7.23897 18.4785 8.40996 19.2275 9.34143C20.8346 11.3419 23.0636 12.3554 25.6225 12.8988Z" fill="#9E7C4F"/>
</svg>
