<svg width="92" height="92" viewBox="0 0 92 92" fill="none" xmlns="http://www.w3.org/2000/svg">
<path d="M7.15363 72.7315C7.545 72.7315 7.93638 72.7315 8.32435 72.7315C19.5278 72.7315 30.7279 72.7315 41.9314 72.7315C42.2683 72.7315 42.6053 72.7145 42.9388 72.7485C44.1946 72.8813 45.1373 73.879 45.1679 75.0877C45.1985 76.2862 44.2933 77.3179 43.0273 77.5018C42.6972 77.5494 42.3568 77.5358 42.0199 77.5358C30.6497 77.5358 19.2794 77.5358 7.90915 77.5358C2.97444 77.5358 0.00340693 74.5497 0.00340693 69.5956C0.00340693 54.2123 -0.00680282 38.8291 0.0136167 23.4424C0.0170199 20.378 1.42256 18.0967 4.16898 16.7041C5.7549 15.8972 7.36123 15.1277 8.98458 14.3956C9.52229 14.1539 9.72308 13.8611 9.71287 13.2652C9.67203 11.3823 9.68905 9.49599 9.69926 7.60968C9.71968 3.14247 12.7792 0.0235998 17.2272 0.01679C32.096 -0.00363928 46.9648 -0.00363928 61.8336 0.00998026C66.2885 0.0133851 69.3718 3.12545 69.4058 7.57563C69.4195 9.42789 69.4535 11.2802 69.3854 13.129C69.3582 13.8713 69.6543 14.1947 70.2669 14.4739C71.8868 15.2128 73.5068 15.9585 75.0825 16.7824C77.737 18.1716 79.0779 20.4325 79.0881 23.4084C79.1153 32.0942 79.1051 40.7801 79.0779 49.4625C79.0779 50.1639 79.2889 50.5146 79.9151 50.8415C86.5378 54.2873 90.523 59.7249 91.7277 67.0794C93.6131 78.5913 85.5645 89.6844 73.9968 91.6797C61.8881 93.7669 50.4838 85.5679 48.7345 73.4227C47.8565 67.3382 49.3675 61.8189 53.1111 56.926C53.3153 56.6605 53.5229 56.3949 53.7237 56.1293C53.7441 56.1055 53.7475 56.068 53.7883 55.9488C53.6488 55.7888 53.4923 55.5811 53.3051 55.4075C49.3335 51.771 45.3653 48.138 41.3869 44.5118C40.1719 43.4052 38.9332 43.4155 37.708 44.5289C27.7161 53.6437 17.7275 62.7654 7.73899 71.8837C7.51437 72.088 7.27955 72.2753 7.04813 72.4693C7.08557 72.5579 7.1196 72.6464 7.15703 72.7349L7.15363 72.7315ZM29.8363 45.2166C31.2724 43.9092 32.6644 42.6562 34.0427 41.3827C37.674 38.0323 41.523 38.0528 45.1373 41.4406C46.4816 42.7004 47.8565 43.9296 49.228 45.1826C49.4118 45.0566 49.5275 44.9953 49.6228 44.9068C54.469 40.4839 59.3186 36.0643 64.141 31.6141C64.4133 31.3656 64.5868 30.8685 64.5868 30.4871C64.6107 22.8772 64.6039 15.2707 64.6005 7.66076C64.6005 5.7404 63.6816 4.80746 61.7621 4.80746C46.992 4.80406 32.2254 4.80746 17.4553 4.81087C15.335 4.81087 14.5012 5.68592 14.5012 7.84122C14.5012 15.349 14.4842 22.8568 14.5251 30.3645C14.5251 30.8514 14.8143 31.4677 15.1717 31.8014C18.5681 34.9679 22.0122 38.0834 25.4393 41.2159C26.8755 42.5268 28.315 43.8343 29.8329 45.2166H29.8363ZM4.85304 68.043C12.1054 61.4205 19.1671 54.9682 26.2867 48.4649C19.1297 41.9275 12.0713 35.4821 4.85304 28.8936V68.0396V68.043ZM74.2453 28.9072C66.9997 35.5229 59.9346 41.9718 52.8218 48.4683C54.4179 49.9256 55.9018 51.2841 57.4332 52.6836C62.5279 49.1527 68.1058 47.8486 74.2453 48.8905V28.9106V28.9072ZM67.4388 73.3206C65.5397 71.3968 63.8347 69.6365 62.0889 67.9136C60.9045 66.7457 59.4513 66.6913 58.4099 67.7059C57.3481 68.741 57.406 70.2494 58.5971 71.4581C60.8671 73.753 63.1507 76.0411 65.4479 78.3087C66.7173 79.5651 68.0922 79.5822 69.3514 78.3292C73.551 74.1548 77.737 69.9702 81.8924 65.7549C82.3144 65.3293 82.6309 64.696 82.7568 64.1069C82.9712 63.1025 82.3416 62.0504 81.4431 61.6009C80.4324 61.0936 79.3501 61.2911 78.4108 62.224C75.9265 64.6892 73.4557 67.1645 70.9918 69.6467C69.8346 70.8112 68.7048 72.0063 67.4354 73.3206H67.4388ZM69.4671 19.3463V26.7792C70.8829 25.4887 72.1659 24.3277 73.4421 23.1564C74.2861 22.3835 74.3065 21.9238 73.3026 21.3075C72.1148 20.5823 70.825 20.0273 69.4705 19.3429L69.4671 19.3463ZM9.62099 26.7656V19.4008C8.85185 19.7583 8.17801 20.0443 7.53479 20.3848C6.83032 20.7559 6.11224 21.1271 5.47243 21.597C4.95173 21.9817 4.82921 22.4516 5.45201 22.9861C6.82011 24.1642 8.13377 25.4104 9.62099 26.7656Z" fill="#C49153"/>
<path d="M25.6299 18.3591C25.8647 15.3389 26.9469 12.615 29.9384 11.1271C33.0422 9.58467 36.0302 10.2078 38.7766 12.1247C39.3722 12.5401 39.6853 12.5878 40.3047 12.1417C42.5951 10.487 45.1441 9.82301 47.928 10.63C51.5865 11.6923 53.9381 15.659 53.3834 19.6904C53.0056 22.4347 51.6579 24.6887 49.8576 26.701C47.2916 29.5679 44.181 31.73 40.8084 33.538C40.0086 33.967 39.2191 34.0181 38.4023 33.5823C34.543 31.5189 31.007 29.0436 28.2946 25.5434C26.6917 23.4766 25.6809 21.1681 25.6299 18.3556V18.3591ZM48.9081 18.6757L48.6563 18.5668C48.6529 15.6522 46.274 14.1676 43.7726 15.6386C42.966 16.1118 42.3194 16.9903 41.8123 17.8143C41.2474 18.7336 40.5769 19.3431 39.5083 19.3294C38.4771 19.3192 37.7386 18.771 37.3268 17.8109C37.2486 17.627 37.1839 17.4329 37.0886 17.2559C36.2106 15.5909 33.8487 14.6409 32.2526 15.3049C30.8437 15.8905 30.0031 17.9232 30.6361 19.7346C31.0376 20.8855 31.64 22.0227 32.3853 22.9829C34.1788 25.3016 36.5475 26.9768 39.0523 28.4545C39.2871 28.5941 39.7295 28.6418 39.9473 28.5124C42.8367 26.8134 45.5491 24.8692 47.4209 22.0227C48.0811 21.0149 48.4214 19.7959 48.9081 18.6757Z" fill="#C49153"/>
</svg>
