<svg width="71" height="99" viewBox="0 0 71 99" fill="none" xmlns="http://www.w3.org/2000/svg">
<path d="M36.2549 -0.000149388C52.7672 -0.00534569 67.4246 12.167 70.431 29.0576C71.8221 36.8806 70.6707 44.4049 66.8661 51.3238C59.4491 64.8082 50.4117 77.1884 39.7118 88.3552C38.8107 89.2958 37.7436 90.0778 36.7635 90.943C35.8966 91.7042 35.014 91.738 34.1998 90.9274C31.5176 88.2539 28.6746 85.7129 26.2295 82.8419C17.9747 73.1456 10.3575 62.9661 4.33168 51.7628C-6.22597 32.1364 3.28303 8.79979 24.5801 1.68865C28.0923 0.516883 31.7284 -0.0365235 36.2549 -0.000149388ZM35.4171 88.8047C36.8926 87.3861 38.2495 86.2169 39.4483 84.9075C48.8783 74.5746 57.091 63.3558 63.9731 51.2328C68.223 43.7501 69.543 35.6673 67.3614 27.2727C62.8243 9.81307 45.9668 -0.358694 28.0528 3.42422C13.9724 6.3965 2.96949 19.6237 2.66649 33.8174C2.52948 40.3128 4.14461 46.3379 7.38278 51.9317C13.7142 62.8621 21.1654 73.0235 29.4413 82.5925C31.2831 84.7204 33.3461 86.6638 35.4171 88.8099V88.8047Z" fill="#C49153"/>
<path d="M33.9599 96.485C40.7604 96.2953 45.9536 95.8692 50.8385 93.7959C51.9899 93.3075 53.1097 92.6423 54.0688 91.8473C55.5416 90.6262 55.539 89.3245 54.0187 88.1449C52.8989 87.2771 51.5736 86.6458 50.2878 86.0144C49.4605 85.6091 48.7517 85.1726 49.0995 84.1775C49.4579 83.1539 50.4169 83.1227 51.1836 83.5306C52.8673 84.4296 54.6458 85.2844 56.0607 86.5185C58.432 88.5866 58.3319 91.377 56.0765 93.5777C54.1478 95.4587 51.7132 96.4564 49.1707 97.1839C43.3767 98.8415 37.4669 99.2806 31.4569 98.8337C27.4098 98.5323 23.4128 97.9893 19.6714 96.4019C17.9693 95.6796 16.2857 94.7079 14.9051 93.5023C12.5812 91.4706 12.5443 88.5944 14.8761 86.5808C16.3884 85.274 18.3066 84.3906 20.1299 83.4916C20.5146 83.302 21.5553 83.7151 21.824 84.1386C22.272 84.8479 21.8135 85.4974 21.002 85.8689C19.8927 86.3756 18.7492 86.8588 17.7348 87.524C15.237 89.166 15.1633 91.0627 17.7928 92.502C20.0192 93.7206 22.4801 94.7157 24.9621 95.2535C28.4111 96.0017 31.9733 96.2304 33.9599 96.485Z" fill="#C49153"/>
<path d="M37.1217 17.9792C38.758 16.81 40.186 15.4668 41.8749 14.6431C46.2276 12.5256 51.434 13.8897 54.659 17.7505C58.8483 22.7676 59.1777 29.8657 55.4731 35.5401C53.2994 38.8683 50.3537 41.4613 47.1551 43.7736C44.3253 45.821 41.3901 47.7254 38.5287 49.7312C37.6329 50.3599 36.8952 50.2794 36.023 49.6662C33.9494 48.2113 33.9494 48.2684 31.8838 49.7364C29.9972 51.077 28.1002 52.4073 26.1267 53.618C25.6525 53.909 24.6802 53.9766 24.256 53.6882C21.226 51.6252 18.167 49.5753 15.3372 47.2629C12.2018 44.6986 9.96484 41.4613 10.1019 37.2315C10.2362 33.1576 11.912 29.8527 15.8747 28.0782C16.6256 27.743 16.6045 27.252 16.6283 26.644C16.7837 22.7624 18.1433 19.3718 21.0205 16.6749C25.4522 12.5179 31.9971 12.7023 36.2338 17.0516C36.5921 17.4206 36.9426 17.7973 37.1191 17.9818L37.1217 17.9792ZM36.0204 46.3666C37.2509 47.4058 37.2588 47.4162 38.4734 46.5874C40.7815 45.0129 43.1159 43.4748 45.3766 41.8354C48.3565 39.6763 51.1573 37.3068 53.1782 34.1968C55.9711 29.8943 56.2609 25.4047 53.7026 20.9437C50.1772 14.7912 42.6733 14.7081 38.8818 20.6916C37.6671 22.6117 36.9953 22.5987 35.7464 20.6579C34.2999 18.4079 32.3791 16.7373 29.6152 16.3917C23.8292 15.6694 18.3461 21.6244 19.3553 26.9766C21.4789 28.0834 23.376 29.0707 25.4259 30.1385C25.4259 30.1385 25.6788 29.9099 25.9291 29.6812C29.3781 26.5609 34.1023 26.7271 37.3299 30.084C40.9817 33.8851 41.0977 39.9621 37.5907 44.4855C37.0901 45.1325 36.5447 45.743 36.0204 46.3692V46.3666ZM37.4853 37.3718C37.6039 37.3302 37.7198 37.286 37.8384 37.2445C37.2667 35.7349 36.9268 34.0825 36.0757 32.7419C33.7755 29.1174 29.1119 29.1876 26.709 32.7523C25.4469 34.6255 24.8119 34.6229 23.5341 32.7315C21.1522 29.2084 16.6362 29.1408 14.2253 32.6483C12.4099 35.2933 12.1017 38.1798 13.6588 40.9936C14.523 42.5577 15.6955 44.0646 17.0525 45.2286C19.3263 47.1798 21.8741 48.8218 24.2718 50.6327C24.9068 51.1134 25.3916 51.0744 26.0055 50.6276C27.1358 49.8065 28.3874 49.1388 29.4492 48.245C31.5123 46.5147 33.5885 44.7765 35.446 42.8409C36.8504 41.3755 37.5618 39.4685 37.4801 37.3692L37.4853 37.3718Z" fill="#C49153"/>
</svg>
