<svg width="116" height="45" viewBox="0 0 116 45" fill="none" xmlns="http://www.w3.org/2000/svg">
<path d="M23.4599 0.720013H25.547L42.0499 39.89C42.7101 41.47 44.0691 42.26 46.1271 42.26H47.5542V44.43H29.1971V42.26H30.6629C32.5753 42.26 33.915 42.07 34.711 41.68C35.2546 41.41 35.5167 40.99 35.5167 40.43C35.5167 40.1 35.4391 39.75 35.3032 39.39L31.4978 30.3H13.2961L11.1604 35.51C10.5973 36.9 10.3158 38 10.3158 38.81C10.3158 39.76 10.7915 40.57 11.7331 41.24C12.6748 41.92 14.0533 42.25 15.8589 42.25H17.4121V44.42H0.734436V42.25C2.52063 42.25 3.92823 41.89 4.96695 41.16C6.00566 40.44 6.957 39.06 7.83068 37.03L23.4696 0.700012L23.4599 0.720013ZM22.5571 8.97001L14.2959 28.05H30.5464L22.5571 8.97001Z" fill="white"/>
<path d="M61.4457 31.92C62.8145 34.07 63.8532 35.65 64.5813 36.63C65.3093 37.62 66.0957 38.59 66.9596 39.54C68.6099 37.64 69.4254 36.09 69.4254 34.9C69.4254 34.36 69.2215 33.94 68.8138 33.62C68.4061 33.3 67.7848 33.15 66.9693 33.15H66.1345V32.14H74.9102V33.15H74.25C73.6773 33.15 73.2113 33.23 72.8424 33.38C72.4735 33.54 72.1338 33.78 71.8231 34.11C71.5125 34.44 71.1339 35.04 70.6971 35.92C69.804 37.69 68.8429 39.18 67.8139 40.38C69.2506 41.75 70.5126 42.44 71.5804 42.44C72.2309 42.44 72.7745 42.2 73.2113 41.72C73.6482 41.24 73.9394 40.41 74.085 39.24H75.0752C75.0752 41.07 74.648 42.46 73.8035 43.41C72.9589 44.36 71.8911 44.83 70.5903 44.83C69.8622 44.83 69.1244 44.66 68.3769 44.32C67.6197 43.98 66.7169 43.36 65.6588 42.46C64.4357 43.36 63.3484 43.98 62.3971 44.32C61.436 44.66 60.4167 44.83 59.3198 44.83C57.3297 44.83 55.6891 44.24 54.3883 43.05C53.0875 41.86 52.4371 40.41 52.4371 38.67C52.4371 37.34 52.8545 36.14 53.6796 35.07C54.5048 34 55.9901 32.95 58.1354 31.9C57.1356 29.99 56.6405 28.4 56.6405 27.13C56.6405 25.75 57.1841 24.57 58.2616 23.61C59.3392 22.64 60.6594 22.16 62.232 22.16C63.8047 22.16 64.9016 22.52 65.7656 23.23C66.6296 23.94 67.0567 24.89 67.0567 26.08C67.0567 27.27 66.6393 28.24 65.8141 29.17C64.989 30.11 63.5329 31.02 61.4554 31.91L61.4457 31.92ZM58.6888 33.07C56.4657 34.22 55.3591 35.59 55.3591 37.2C55.3591 38.43 55.8736 39.73 56.9123 41.08C57.951 42.44 59.2421 43.11 60.7856 43.11C62.0961 43.11 63.4455 42.62 64.8143 41.63C63.795 40.49 62.8824 39.37 62.067 38.26C61.2516 37.15 60.1255 35.42 58.6888 33.07ZM60.8536 30.79C62.3679 30.17 63.4067 29.52 63.9794 28.81C64.5521 28.11 64.8337 27.27 64.8337 26.29C64.8337 25.37 64.5716 24.64 64.0571 24.1C63.5329 23.56 62.8727 23.29 62.0573 23.29C61.2419 23.29 60.5915 23.55 60.0672 24.06C59.543 24.57 59.2809 25.26 59.2809 26.11C59.2809 27.35 59.8051 28.91 60.8633 30.78L60.8536 30.79Z" fill="white"/>
<path d="M77.3759 1.62H114.799L115.42 16.44H113.275C112.323 11.34 110.984 8.03 109.265 6.48C107.295 4.69 104.489 3.79 100.839 3.79H93.4613C92.7333 3.79 92.2091 3.94999 91.879 4.26999C91.5489 4.58999 91.3839 5.06999 91.3839 5.69999V21.19H95.3349C97.5288 21.19 99.2859 20.51 100.596 19.16C101.907 17.81 102.606 15.72 102.713 12.91H104.955V32.22H102.713C102.567 29.02 101.858 26.73 100.596 25.36C99.3344 23.99 97.5774 23.3 95.3349 23.3H91.3839V39.63C91.3839 40.6 91.6363 41.28 92.1314 41.67C92.6265 42.07 93.4905 42.26 94.7136 42.26H99.5092V44.43H77.3856V42.26H82.1132C83.0645 42.26 83.744 42.08 84.1517 41.72C84.5595 41.36 84.7536 40.78 84.7536 39.97V5.93C84.7536 5.16 84.5401 4.60999 84.1129 4.27999C83.6858 3.95 82.948 3.79 81.8899 3.79H77.3759V1.62Z" fill="white"/>
</svg>
