<svg width="397" height="77" viewBox="0 0 397 77" fill="none" xmlns="http://www.w3.org/2000/svg">
<g clip-path="url(#clip0_3_66)">
<path d="M24.4855 63.2272C30.5539 57.9773 36.7341 51.5719 43.0438 44.0109C41.7312 44.4215 40.5717 44.7735 39.5711 45.0667C37.77 45.5888 36.275 45.9935 35.086 46.2692L33.9383 46.539L32.7611 46.7619L31.5603 46.9614L31.2602 46.9848L30.96 47.0318L30.3302 47.0552H30.03C29.7181 47.0552 29.3943 47.0376 29.0471 47.0083C28.6115 46.9731 28.1818 46.891 27.7639 46.7619C27.2518 46.5977 26.8339 46.3748 26.5043 46.0991C26.0864 45.7354 25.851 45.3131 25.7921 44.8204V44.6209C25.7921 44.2455 25.8804 43.8643 26.0629 43.4888C26.263 43.131 26.5279 42.7908 26.8575 42.4799C27.5697 41.8406 28.3761 41.4886 29.2884 41.4241C29.3767 41.4241 29.4532 41.471 29.5062 41.5707C29.5415 41.6705 29.5591 41.7936 29.5591 41.9403C29.5591 42.0869 29.5415 42.2101 29.5062 42.3098C29.4708 42.4095 29.4238 42.4682 29.3708 42.4799C28.7528 42.5269 28.1936 42.7908 27.7051 43.2659C27.2872 43.659 27.0753 44.0461 27.0753 44.4215C27.0753 44.5212 27.0929 44.6209 27.1282 44.7148C27.1989 45.1078 27.5932 45.3776 28.3054 45.5243C28.7233 45.6064 29.1353 45.6474 29.5356 45.6474C29.8475 45.6474 30.136 45.624 30.4126 45.5712L30.6598 45.5477L31.4779 45.4011L32.0253 45.2779L32.5963 45.1313C33.0907 45.014 33.8264 44.8204 34.8094 44.5388L39.265 43.1838C41.3604 42.5445 43.2851 41.9872 45.0332 41.5121C47.2169 38.7728 49.2476 36.0745 51.1252 33.4173C53.8739 29.5459 56.2047 25.8739 58.1177 22.3955C59.2301 20.3308 60.1777 18.3951 60.9606 16.5884C61.8905 14.3888 62.5556 12.3885 62.9559 10.5877C63.1913 9.52016 63.3267 8.49952 63.3679 7.51407V7.04481C63.3679 6.11215 63.2325 5.27334 62.9559 4.53426C62.591 3.53121 61.9788 2.78039 61.1254 2.27007C60.3425 1.79494 59.3243 1.51338 58.0647 1.43126L57.8763 1.4078C55.469 1.45472 52.938 2.0237 50.2776 3.10301C48.0351 4.02393 45.7513 5.26161 43.4205 6.81604C39.3062 9.60228 35.5216 13.0162 32.0783 17.0518C30.3478 19.1048 28.8881 21.1168 27.7051 23.1053C27.0105 24.255 26.4514 25.3343 26.0099 26.3549C25.4802 27.6513 25.1741 28.7834 25.0799 29.7512C25.0623 29.9331 25.0505 30.1032 25.0505 30.2674C25.0505 31.3819 25.4331 32.1268 26.1983 32.5081C26.6162 32.7369 27.1636 32.8601 27.8404 32.8777H28.0052C28.5526 32.8777 29.1059 32.8014 29.671 32.6548C30.907 32.3087 32.0018 31.7514 32.9494 30.983C33.2614 30.7367 33.5204 30.4903 33.744 30.2439C33.6322 30.1266 33.5616 29.9976 33.5262 29.8509V29.7512C33.5262 29.6515 33.5557 29.5518 33.6087 29.4579C33.6793 29.2937 33.8205 29.1646 34.0207 29.0649C34.2561 28.9476 34.5386 28.8772 34.8682 28.842H34.9506C35.2037 28.842 35.3685 28.9065 35.4451 29.0415V29.7805L35.3097 30.0269L35.1743 30.2498C34.827 30.7601 34.3562 31.2587 33.7558 31.7514C32.661 32.6372 31.4132 33.2765 30.0124 33.6695C29.3414 33.8338 28.6704 33.9159 28.017 33.9159H27.8228C26.9517 33.8983 26.21 33.7282 25.6097 33.3997C25.2977 33.2531 24.9917 33.0067 24.6797 32.6606C24.4266 32.3321 24.25 32.0037 24.1617 31.6752C23.9969 31.2177 23.9145 30.7073 23.9145 30.1501C23.9145 30.0034 23.9263 29.8451 23.944 29.6808C24.0322 28.6132 24.3736 27.3873 24.9563 25.9913C25.3919 24.9237 25.9687 23.8033 26.6809 22.6184C27.8993 20.583 29.4061 18.5183 31.1895 16.4183C34.6858 12.3005 38.5411 8.828 42.7495 5.98897C45.1333 4.38174 47.4877 3.10887 49.8008 2.17621C52.6261 1.02652 55.3101 0.422348 57.8646 0.357825C57.9175 0.357825 57.9646 0.363691 57.9999 0.381288H58.2177C60.4426 0.416483 62.9088 0.551395 65.6222 0.797758C67.4233 0.979597 69.5187 1.22596 71.9084 1.53685C72.7265 1.65416 73.6742 1.78321 74.7513 1.92985L76.1168 2.12929L77.4294 2.2994C79.5424 2.59268 81.267 2.82732 82.5972 2.98569C86.8763 3.49601 90.4196 3.75411 93.2272 3.7717C95.4698 3.7717 97.5004 3.63093 99.3192 3.35523C100.014 3.25552 100.549 3.16753 100.932 3.08541L101.367 2.98569L101.779 2.88597L102.598 2.66307L103.033 2.53989L103.445 2.41671L104.293 2.12342L104.705 1.97678L105.117 1.80667L105.552 1.60723L105.964 1.43713L106.235 1.29048L106.506 1.1673L107.077 0.874013C107.459 0.674577 107.842 0.498603 108.225 0.334362C108.695 0.105597 109.078 -0.0117188 109.372 -0.0117188C109.625 -0.0117188 109.826 0.0704021 109.973 0.234644C110.102 0.363691 110.161 0.516201 110.161 0.674577C110.161 1.29635 109.16 2.09996 107.153 3.08541C105.04 4.11778 102.562 4.85101 99.7194 5.27334C98.0419 5.50211 96.229 5.61942 94.2808 5.61942H93.2154C90.3549 5.5373 86.7586 5.16776 82.4207 4.51079C81.2906 4.31136 79.5954 4.03566 77.3411 3.67199L74.663 3.23205C73.6447 3.05021 72.703 2.8977 71.8495 2.76279C69.5187 2.40498 67.441 2.11756 65.6163 1.90052C64.3626 1.77148 63.1854 1.66589 62.0907 1.57791C63.0736 2.25247 63.7681 3.16166 64.1684 4.31136C64.4803 5.23228 64.6334 6.24706 64.6334 7.36156V7.7311C64.5981 8.96291 64.4627 10.0657 64.2214 11.0511C63.8388 12.9399 63.1678 15.0633 62.1966 17.4214C61.4138 19.3395 60.4661 21.3632 59.3537 23.4983C57.3466 27.3052 55.0099 31.1473 52.3318 35.0363C51.0369 36.925 49.6831 38.7904 48.2587 40.6439H48.2882C49.7243 40.2861 51.2664 39.9283 52.9086 39.5881L53.509 39.4884L54.0799 39.3887L55.2806 39.1892L56.4814 39.0426L57.7115 38.9957C57.7822 38.9957 57.8469 39.0426 57.9058 39.1423C57.9411 39.242 57.9587 39.3535 57.9587 39.4884C57.9587 39.635 57.9411 39.7582 57.9058 39.8579C57.8704 39.9752 57.8116 40.028 57.741 40.028L56.5932 40.1043L55.4454 40.3037L54.8451 40.4035L53.6973 40.6498L53.1499 40.7965C51.6726 41.1719 50.1599 41.6177 48.6119 42.1221L46.5636 42.8084C45.7278 43.876 44.8979 44.8908 44.0797 45.8586C37.9937 53.0442 31.6898 59.2971 25.1682 64.6291C21.2894 67.7966 17.5636 70.3951 13.9909 72.4306C11.7895 73.6741 9.69412 74.6713 7.70468 75.4045C5.12076 76.3724 2.79582 76.8944 0.735741 76.9765H0.653338C0.453216 76.9765 0.300182 76.9296 0.18835 76.8299C0.0588593 76.7478 0 76.6305 0 76.4838C0 76.3372 0.0529734 76.214 0.164806 76.1143C0.294296 75.997 0.464988 75.9442 0.682768 75.9442C2.63101 75.8621 4.86178 75.34 7.38095 74.3721C9.3292 73.6037 11.3775 72.5772 13.5317 71.2985C17.0633 69.1633 20.7185 66.4709 24.4913 63.2037L24.4855 63.2272Z" fill="#9E7C4F"/>
<path d="M69.9013 36.139L69.6305 36.0393C69.3186 35.8399 69.0949 35.6228 68.9478 35.3765C68.7653 35.0949 68.677 34.7782 68.677 34.4145V34.3148C68.677 33.8572 68.8124 33.3411 69.089 32.7662C69.3421 32.2559 69.66 31.7984 70.0426 31.3877C70.4781 30.9478 70.9608 30.6017 71.4905 30.3554C72.0732 30.0738 72.6853 29.9389 73.321 29.9389H73.3505C73.7154 29.9741 74.045 30.0445 74.3334 30.1618C74.5865 30.2791 74.769 30.4316 74.8808 30.6311C74.975 30.7601 75.0279 30.8774 75.0456 30.9771L75.0986 31.1473V31.2939C75.0986 31.6048 75.0044 31.9509 74.8278 32.3263C74.6983 32.5902 74.5276 32.8601 74.3099 33.1358C73.7271 33.9218 72.9443 34.8016 71.9614 35.7695L72.2321 35.8692L72.6971 36.0393V36.0158L72.8325 36.0921C73.0326 36.1742 73.2151 36.2739 73.3799 36.3854C73.7271 36.6142 73.9508 36.8957 74.0626 37.2242C74.098 37.3415 74.1274 37.4647 74.1451 37.5937C74.1627 37.6289 74.1686 37.6583 74.1686 37.6935L74.198 37.7932V37.8694L74.1686 37.9926V38.0923L74.1451 38.192L74.0921 38.3387C74.0391 38.5499 73.9626 38.7552 73.8743 38.9546C73.6389 39.4942 73.3151 39.987 72.9208 40.4328C72.703 40.6967 72.1909 41.254 71.3904 42.1045C71.0079 42.4975 70.69 42.8319 70.4369 43.1134C70.072 43.5064 69.7365 43.8818 69.4245 44.2455C69.0066 44.7558 68.677 45.1723 68.4416 45.5008C68.0943 45.9935 67.8236 46.4511 67.6234 46.8793C67.4586 47.2253 67.3762 47.5128 67.3762 47.7415C67.3762 47.8882 67.4115 48.0055 67.4881 48.0876C67.5764 48.1991 67.7353 48.2929 67.9531 48.3574C68.1708 48.422 68.4357 48.4571 68.7477 48.4571C69.0773 48.4396 69.4481 48.3574 69.866 48.2108C70.1779 48.1111 70.5605 47.9586 71.0137 47.7415C71.6494 47.4482 72.3969 47.0611 73.2563 46.586C74.3687 45.9466 75.8049 45.055 77.5765 43.9053L81.838 41.078L83.9687 39.6526C84.7868 39.1306 85.5343 38.6789 86.2112 38.2976H86.2406C86.3113 38.2976 86.4408 38.4267 86.6232 38.6906C86.7704 38.9018 86.841 39.0543 86.841 39.1306C86.841 39.1482 86.8292 39.1658 86.8116 39.1775C86.1759 39.5412 85.4578 39.9811 84.6514 40.5032L82.5207 41.9051L78.2593 44.7324C76.4759 45.8938 75.0044 46.8089 73.8625 47.4658C72.9855 47.9586 72.2145 48.3574 71.5376 48.6742C71.0432 48.9029 70.6194 49.0731 70.2545 49.1904C69.7424 49.3722 69.2597 49.4778 68.8065 49.5071L68.7535 49.4837L68.7241 49.5071C68.2886 49.4895 67.906 49.4426 67.5764 49.3605C67.0819 49.2138 66.717 48.9675 66.4816 48.6214C66.2814 48.3398 66.1814 48.0172 66.1814 47.6359V47.4658C66.199 47.1725 66.2697 46.8441 66.3992 46.4804C66.5993 45.9525 66.8642 45.4069 67.1938 44.8321L67.6293 44.1165L68.0943 43.4302C68.6417 42.6266 69.2244 41.8406 69.8424 41.0663C70.2957 40.4738 70.7724 39.8931 71.2609 39.3183L71.5906 38.9722L71.9731 38.4325C72.2086 38.0395 72.3557 37.7111 72.4087 37.4471C72.4264 37.4119 72.4381 37.3826 72.4381 37.3474C72.4381 37.3122 72.4264 37.2829 72.4087 37.2477V37.1245C72.391 37.0893 72.344 37.0482 72.2733 37.0013C72.0909 36.9368 71.7907 36.8371 71.3728 36.708L71.1256 36.6318C69.6835 37.8929 68.1179 39.0074 66.4227 39.9752C66.4051 39.9752 66.358 39.9342 66.2873 39.8521C66.2167 39.7699 66.1343 39.6702 66.0401 39.5588C65.9695 39.4415 65.9048 39.3476 65.8459 39.2655C65.7929 39.1834 65.7635 39.1364 65.7635 39.1188C67.182 38.2683 68.5711 37.2711 69.919 36.1449L69.9013 36.139ZM70.3369 35.2064L70.7489 35.353L71.1609 35.0304C72.0732 34.1095 72.8031 33.2824 73.3446 32.5433C73.5094 32.3145 73.6447 32.1034 73.7566 31.9039C73.8684 31.6752 73.9214 31.4757 73.9214 31.3115C73.9214 31.2118 73.8743 31.1414 73.786 31.0886C73.6212 31.0241 73.4152 30.983 73.1562 30.9654C72.2969 31.0299 71.5552 31.3995 70.9137 32.074C70.6017 32.4025 70.3486 32.7721 70.1485 33.1827C69.9307 33.6109 69.8189 33.9863 69.8189 34.3148V34.391C69.8366 34.7371 70.0072 35.0069 70.3369 35.2005V35.2064Z" fill="#9E7C4F"/>
<path d="M103.127 38.2273C103.18 38.2273 103.31 38.3563 103.51 38.6203C103.675 38.8666 103.757 39.0133 103.757 39.0602V39.0837L102.197 40.0163L100.779 40.9021C99.5605 41.6587 98.5834 42.2395 97.8536 42.6501C96.6705 43.307 95.6228 43.8173 94.7105 44.1752C93.4332 44.6679 92.2796 44.9318 91.2378 44.9612H91.126C90.4903 44.9436 89.9782 44.7911 89.5956 44.4919C89.3425 44.2807 89.1659 44.0344 89.0777 43.7528C88.9894 43.5534 88.9423 43.3129 88.9423 43.0137C88.9423 42.6559 88.9894 42.2746 89.0777 41.8816L88.3949 42.4213C87.9946 42.7322 87.6297 42.9844 87.3001 43.1838C87.0823 43.3305 86.8704 43.4478 86.6703 43.5299L86.5055 43.6062L86.3113 43.6824C86.1465 43.747 85.9817 43.788 85.8227 43.8056C85.4578 43.8056 85.14 43.6883 84.8692 43.4595C84.7397 43.3598 84.6338 43.2308 84.5396 43.0665C84.469 42.9375 84.4219 42.7967 84.4042 42.6501C84.3689 42.5034 84.3513 42.345 84.3513 42.1808C84.3513 41.8992 84.3866 41.6001 84.4631 41.2716C84.6456 40.4328 84.9928 39.682 85.499 39.0074C85.9934 38.3856 86.6291 37.8343 87.4119 37.3591C87.8122 37.1128 88.2242 36.9075 88.6421 36.7432C89.1542 36.5438 89.6368 36.4499 90.09 36.4499C90.3078 36.4851 90.4903 36.5497 90.6374 36.6494C90.8022 36.7667 90.9258 36.9133 91.02 37.0893C91.0906 37.2359 91.1495 37.3943 91.1848 37.5586L91.2378 37.4823C91.5262 37.0248 91.8323 36.6963 92.1383 36.4969C92.3385 36.3678 92.5268 36.2974 92.7093 36.2974C92.9094 36.2974 93.1095 36.3737 93.3096 36.5203C93.6393 36.7491 93.8041 36.9955 93.8041 37.2594C93.8041 37.3415 93.7864 37.4237 93.7511 37.5058C93.6981 37.6348 93.5863 37.7932 93.4215 37.975L92.9859 38.5147L92.5739 39.0309L92.3267 39.3242L92.0559 39.6702C91.6204 40.2275 91.2554 40.7378 90.9612 41.1953C90.5256 41.9344 90.2784 42.5503 90.2254 43.0431V43.2132C90.2254 43.4243 90.2784 43.5827 90.3902 43.6824C90.555 43.8291 90.8199 43.9112 91.1848 43.9288C92.0795 43.8936 93.0977 43.659 94.2455 43.2132C95.1225 42.8671 96.1113 42.3861 97.2238 41.7643C97.9536 41.3537 98.9189 40.7789 100.12 40.0398L101.538 39.1541L103.121 38.2214L103.127 38.2273ZM87.6591 41.647L88.6421 40.861L89.6251 40.0515L89.8428 39.8286L89.8958 39.6057L89.9782 39.0426C90.0312 38.6848 90.0606 38.368 90.0606 38.1099V37.9398C90.0429 37.758 90.0076 37.629 89.9488 37.5468V37.5234C89.4779 37.6055 88.9835 37.9398 88.4714 38.5323C88.2889 38.7141 88.0712 38.9839 87.8181 39.3418L87.4885 39.7348L87.1588 40.1512C86.5938 40.8375 86.2053 41.383 85.9817 41.7761C85.7992 42.0869 85.7109 42.3392 85.7109 42.5386V42.7087L85.7403 42.7322L85.7933 42.7556C85.9051 42.7204 86.0111 42.6794 86.1229 42.6325C86.2877 42.5503 86.4584 42.4506 86.6409 42.3392C86.9293 42.1573 87.2707 41.9286 87.6533 41.6529L87.6591 41.647Z" fill="#9E7C4F"/>
<path d="M131.333 38.2273H131.362C131.397 38.2273 131.445 38.2625 131.498 38.327C131.568 38.3915 131.651 38.4854 131.745 38.5968C131.833 38.7141 131.91 38.8197 131.963 38.9136C131.998 38.9781 132.016 39.0191 132.016 39.0367V39.0602L128.49 41.3478C127.413 42.0341 126.465 42.609 125.647 43.0724C124.535 43.6648 123.499 44.1282 122.533 44.4743C121.315 44.8849 120.149 45.0961 119.037 45.1137C117.872 45.0961 116.906 44.9905 116.141 44.7969C115.688 44.6796 115.223 44.4919 114.746 44.2338C114.328 43.9875 113.963 43.659 113.651 43.2484C113.398 42.9023 113.204 42.521 113.08 42.0928C112.969 41.7643 112.91 41.3948 112.886 40.9842C112.869 40.7847 112.857 40.5912 112.857 40.3917C112.857 40.1923 112.869 39.9987 112.886 39.7993V39.5295L112.916 39.3066L112.998 38.8901L113.08 38.6203H113.028C112.992 38.6203 112.945 38.6261 112.892 38.6437C112.839 38.6437 112.774 38.6613 112.704 38.6907L112.51 38.8138L112.486 38.7904C111.939 39.0837 111.244 39.5471 110.408 40.1688C109.696 40.6968 108.848 41.3654 107.866 42.1867L106.612 43.2425L106.041 43.7352C105.894 43.9464 105.776 44.1106 105.688 44.2279C105.541 44.3922 105.393 44.5212 105.252 44.621C105.087 44.7383 104.905 44.7911 104.705 44.7911C104.54 44.7911 104.358 44.7441 104.157 44.6444C103.775 44.4157 103.581 44.1693 103.581 43.9053C103.581 43.8408 103.592 43.7763 103.61 43.7059C103.645 43.5768 103.74 43.4185 103.881 43.2366L104.069 42.9903L104.287 42.7204C105.964 40.292 107.03 38.6613 107.483 37.8225L107.595 37.5762C107.63 37.5116 107.66 37.4471 107.677 37.3767C107.059 37.494 106.259 37.7932 105.27 38.2859C104.54 38.6496 103.557 39.2068 102.321 39.9577C102.303 39.9577 102.256 39.9166 102.186 39.8345C102.115 39.7524 102.033 39.6526 101.938 39.5412C101.868 39.4239 101.803 39.33 101.75 39.2479C101.697 39.1658 101.668 39.1189 101.668 39.1013C102.945 38.3328 103.951 37.7463 104.699 37.3533C105.317 37.06 105.876 36.8195 106.365 36.6376C107.059 36.3913 107.707 36.2622 108.307 36.2446L108.336 36.3443C108.336 36.3443 108.372 36.3209 108.389 36.3209L108.501 36.3678L108.584 36.4147C108.654 36.4499 108.719 36.491 108.778 36.5379C108.89 36.6376 108.978 36.7843 109.049 36.9779C109.102 37.1421 109.131 37.3239 109.131 37.5175C109.131 37.7463 109.096 38.0044 109.019 38.2801C108.854 38.937 108.507 39.7406 107.983 40.6909C108.601 40.1806 109.166 39.7406 109.678 39.3652C110.879 38.4795 111.844 37.8636 112.574 37.5175C112.845 37.4002 113.092 37.3122 113.31 37.2477C113.545 37.2007 113.746 37.1714 113.91 37.1714H114.022L114.158 37.2477L114.293 37.2946C114.405 37.3415 114.523 37.4412 114.646 37.5879C114.77 37.7697 114.876 37.9809 114.946 38.2273C115.017 38.5088 115.058 38.7904 115.058 39.0895C115.058 39.2186 115.046 39.3594 115.029 39.506L114.976 39.8227L114.923 40.1688C114.87 40.4621 114.84 40.7085 114.84 40.9079C114.823 41.0546 114.811 41.1895 114.811 41.3009C114.811 41.7761 114.893 42.1691 115.058 42.4799C115.311 42.9903 115.817 43.3833 116.559 43.659C117.254 43.9053 118.089 44.0285 119.072 44.0285C120.803 43.9933 122.798 43.3657 125.058 42.1339C125.841 41.7057 126.759 41.1601 127.819 40.4856L131.345 38.1979L131.333 38.2273Z" fill="#9E7C4F"/>
<path d="M143.575 38.2273C143.611 38.2273 143.658 38.2625 143.711 38.327C143.781 38.4091 143.864 38.5088 143.958 38.6203C144.046 38.7376 144.111 38.8432 144.146 38.937C144.182 39.0015 144.199 39.0543 144.199 39.0837V39.1071L142.451 40.163L141.109 41.0018C140.032 41.6587 139.126 42.1925 138.378 42.6031C137.301 43.1956 136.33 43.6531 135.453 43.9816C134.27 44.4215 133.193 44.662 132.227 44.6972H132.198L132.145 44.7207L132.116 44.6972C131.715 44.6796 131.303 44.6092 130.885 44.4743C130.415 44.3101 130.05 44.0402 129.791 43.6648C129.573 43.3716 129.443 42.9903 129.408 42.5327V42.4096C129.408 42.1808 129.443 41.8992 129.52 41.5708C129.632 41.0956 129.832 40.5853 130.12 40.0457C130.373 39.5705 130.638 39.1423 130.915 38.7669C131.609 37.8636 132.38 37.1128 133.24 36.5027C133.511 36.3033 133.787 36.1332 134.058 35.9865L134.546 35.7402L134.817 35.6405L135.229 35.5173L135.447 35.4704L135.941 35.4234L136.159 35.4L136.624 35.4469C136.736 35.4645 136.871 35.5231 137.036 35.617C137.566 35.9279 137.837 36.4675 137.854 37.2418V37.365C137.854 37.758 137.76 38.0689 137.584 38.2977C137.436 38.4443 137.254 38.5206 137.036 38.5206C136.871 38.5206 136.689 38.4795 136.489 38.3974C136.071 38.2331 135.818 38.063 135.724 37.8812C135.671 37.7991 135.641 37.7169 135.641 37.6348L135.671 37.4882V37.4413H135.641L135.588 37.4647L135.423 37.5116L135.094 37.6348C134.894 37.7345 134.676 37.846 134.435 37.9809C133.669 38.4208 132.957 38.984 132.304 39.6526C131.574 40.4211 131.086 41.1426 130.827 41.8171C130.732 42.0987 130.691 42.3157 130.691 42.48V42.5797C130.691 42.7615 130.738 42.9258 130.827 43.0724C130.938 43.2542 131.109 43.395 131.344 43.4889C131.639 43.5886 131.927 43.6472 132.221 43.659C133.04 43.6238 133.97 43.4126 135.011 43.0196C135.812 42.7087 136.73 42.2747 137.772 41.7174C138.484 41.3244 139.373 40.7965 140.45 40.1454L141.792 39.3066L143.57 38.2214L143.575 38.2273Z" fill="#9E7C4F"/>
<path d="M145.789 43.3246L145.677 43.4243C144.658 44.1634 143.652 44.5564 142.669 44.6034H142.645C142.392 44.6034 142.175 44.5799 141.986 44.5271C141.716 44.4626 141.486 44.3629 141.303 44.2338C140.939 43.9523 140.756 43.5768 140.756 43.1017V43.0255C140.774 42.697 140.839 42.3626 140.95 42.0165L141.115 41.6001L141.28 41.2071C141.498 40.7319 141.751 40.2803 142.045 39.8521C142.263 39.506 142.498 39.1775 142.757 38.8666C142.922 38.6379 143.105 38.4619 143.305 38.3504C143.505 38.2214 143.699 38.151 143.876 38.151C143.929 38.151 143.987 38.1569 144.04 38.1745C144.205 37.7287 144.435 37.3239 144.723 36.9427C145.141 36.4499 145.6 36.1039 146.089 35.9103C146.377 35.8106 146.701 35.7519 147.042 35.7402H147.26L147.478 35.7636L147.725 35.7871L147.943 35.834C148.343 35.9631 148.643 36.139 148.843 36.3502C148.896 36.3971 148.955 36.4675 149.008 36.5497L149.226 36.9896L149.279 37.189C149.314 37.3533 149.332 37.5234 149.332 37.7052C149.332 38.0337 149.279 38.3856 149.167 38.761C148.914 39.5999 148.449 40.4504 147.772 41.3185C147.443 41.7585 147.089 42.1691 146.707 42.5503C147.072 42.6677 147.454 42.7204 147.855 42.7204C149.367 42.6852 151.162 42.1221 153.24 41.0252C153.911 40.6498 154.759 40.1454 155.783 39.5236L157.066 38.7376L157.914 38.2214C157.949 38.2214 157.996 38.2566 158.049 38.3211C158.12 38.4032 158.202 38.503 158.296 38.6144C158.367 38.7317 158.432 38.8373 158.49 38.9312C158.526 38.9957 158.543 39.0485 158.543 39.0778L157.725 39.594L156.442 40.38C155.424 41.0194 154.547 41.5297 153.817 41.9051C152.799 42.4448 151.851 42.873 150.974 43.1838C149.844 43.5593 148.779 43.7587 147.778 43.7763C147.048 43.7587 146.383 43.6062 145.783 43.307L145.789 43.3246ZM142.316 43.5241C142.41 43.5592 142.51 43.571 142.616 43.571C143.311 43.5358 144.058 43.2425 144.859 42.6852L144.776 42.609C144.246 42.0869 143.911 41.43 143.764 40.644C143.328 41.0839 142.963 41.4886 142.669 41.8523C142.322 42.3274 142.116 42.738 142.039 43.0841C142.022 43.131 142.01 43.1721 142.01 43.2073C142.01 43.2894 142.045 43.3657 142.122 43.4302C142.175 43.4771 142.239 43.5123 142.31 43.5299L142.316 43.5241ZM145.647 37.5703C145.318 37.9985 145.094 38.4971 144.965 39.0719C144.982 39.1365 144.994 39.201 144.994 39.2714C144.994 39.3711 144.959 39.4708 144.882 39.5647V39.9577C144.882 40.7613 145.129 41.4182 145.618 41.9227L145.7 41.999C146.101 41.6235 146.471 41.2012 146.819 40.7437C147.419 39.9753 147.831 39.2244 148.049 38.503C148.119 38.2214 148.161 37.9809 148.161 37.7639C148.161 37.6465 148.149 37.5351 148.137 37.4178L148.108 37.2946L148.078 37.1949L147.966 37.0482C147.913 36.9837 147.796 36.9192 147.613 36.8488L147.201 36.7725H147.066C146.866 36.7901 146.695 36.8312 146.548 36.8957C146.236 36.9954 145.936 37.2183 145.647 37.5586V37.5703Z" fill="#9E7C4F"/>
<path d="M189.986 44.7852C189.091 45.1782 188.12 45.5947 187.061 46.0405C185.819 47.6301 184.571 49.1259 183.317 50.516C181.675 52.3227 180.127 53.8361 178.673 55.0679C177.543 56.0181 176.472 56.7924 175.448 57.379C173.847 58.2999 172.316 58.822 170.857 58.951L170.721 58.9276H170.668C170.121 58.91 169.638 58.8044 169.22 58.6049C168.726 58.3762 168.355 58.0477 168.102 57.6195C167.867 57.2089 167.749 56.769 167.749 56.2938C167.749 55.9008 167.831 55.4844 167.996 55.0386C168.232 54.2701 168.667 53.5545 169.309 52.8975C169.821 52.3696 170.486 51.8534 171.304 51.349C172.381 50.692 173.87 49.9823 175.783 49.208L178.079 48.3222L180.404 47.46C182.134 46.8206 183.612 46.2634 184.83 45.7882C185.577 44.7559 186.525 43.4009 187.673 41.7291L187.561 41.8054C186.578 42.6911 185.701 43.3891 184.936 43.8936C183.735 44.662 182.587 45.0726 181.493 45.1254C181.475 45.1254 181.457 45.1078 181.44 45.0785H181.387C181.057 45.0609 180.833 44.8556 180.704 44.4626C180.651 44.3159 180.621 44.1693 180.621 44.0226C180.621 43.876 180.645 43.7176 180.704 43.5534C180.739 43.4243 180.792 43.2894 180.869 43.1604L181.033 42.8143C181.234 42.4682 181.463 42.1163 181.716 41.7584L182.046 41.342L182.375 40.949C182.705 40.5736 183.076 40.1512 183.494 39.6937C183.729 39.4473 183.976 39.1951 184.23 38.9311C184.324 38.8314 184.424 38.7317 184.53 38.6378L184.665 38.4912L184.777 38.368C184.341 38.5323 183.829 38.761 183.247 39.0543C182.517 39.418 181.534 39.9752 180.292 40.7261C180.274 40.7261 180.227 40.685 180.156 40.6029C180.086 40.5208 180.003 40.421 179.909 40.3096C179.821 40.1923 179.744 40.0984 179.691 40.0163C179.656 39.9342 179.639 39.8873 179.639 39.8697C180.916 39.1012 181.922 38.5147 182.67 38.1217C183.288 37.8284 183.847 37.5879 184.336 37.406C185.03 37.1597 185.666 37.0306 186.248 37.013C186.413 37.013 186.549 37.1128 186.66 37.3063C186.731 37.4236 186.772 37.5527 186.772 37.6993C186.772 37.799 186.755 37.9046 186.719 38.0161C186.649 38.3094 186.49 38.6613 186.254 39.0719C186.001 39.4825 185.589 40.0398 185.024 40.7437L184.806 41.037L184.559 41.3302C184.359 41.5942 184.188 41.8171 184.041 41.9931L183.77 42.3626L183.47 42.7556C183.252 43.0665 183.07 43.3481 182.923 43.5944L182.84 43.7939C183.311 43.612 183.788 43.3598 184.259 43.0313C184.989 42.5738 185.819 41.9168 186.743 41.0604C187.237 40.6205 187.891 40.0046 188.709 39.2127L189.692 38.28L190.704 37.3474C191.016 36.9544 191.299 36.6845 191.552 36.5379C191.734 36.4206 191.917 36.3678 192.099 36.3678C192.264 36.3678 192.417 36.4147 192.564 36.5144C192.894 36.6963 193.053 36.925 193.053 37.2007C193.053 37.3005 193.035 37.4002 193 37.494C192.929 37.7756 192.646 38.2624 192.152 38.9722C190.734 41.0546 189.456 42.8436 188.326 44.3335L189.474 43.8408C192.499 42.5151 195.631 40.8962 198.874 38.9957C198.891 38.9781 198.921 38.9722 198.956 38.9722C198.991 38.9722 199.044 38.9957 199.121 39.0485C199.215 39.0954 199.303 39.1892 199.392 39.3183C199.48 39.4356 199.539 39.5412 199.557 39.635C199.574 39.6702 199.586 39.6996 199.586 39.7348C199.586 39.7993 199.557 39.8403 199.504 39.8579C196.225 41.776 193.053 43.4185 189.992 44.7793L189.986 44.7852ZM181.922 49.6303C182.487 48.9264 183.07 48.1697 183.67 47.3661L180.827 48.422L178.503 49.2842C177.631 49.6127 176.872 49.9001 176.236 50.1465C174.377 50.9032 172.946 51.5895 171.946 52.2113C170.398 53.1615 169.444 54.2056 169.073 55.3377C168.95 55.6662 168.885 55.9712 168.885 56.2469C168.885 56.5754 168.967 56.8628 169.132 57.1092C169.403 57.6019 169.933 57.8659 170.715 57.8952H170.768C172.028 57.7955 173.346 57.3321 174.73 56.4933C175.66 55.9184 176.631 55.1793 177.655 54.2819C178.985 53.0677 180.404 51.5191 181.916 49.6303H181.922Z" fill="#9E7C4F"/>
<path d="M264.031 57.6136C263.283 59.5317 262.73 61.2563 262.365 62.7814C262.036 64.2595 261.871 65.5676 261.871 66.7173C261.871 67.1455 261.888 67.5444 261.924 67.9198C261.977 68.3304 262.059 68.7234 262.171 69.0988C262.295 69.4742 262.442 69.8262 262.607 70.1546C262.789 70.4655 263.007 70.7588 263.266 71.0404C263.501 71.2867 263.778 71.5155 264.084 71.7267C264.596 72.0727 265.202 72.366 265.914 72.6124C266.185 72.7121 266.491 72.8001 266.815 72.8822L267.227 72.9819L267.61 73.0817C268.687 73.3104 269.222 73.5157 269.222 73.6976C269.222 74.026 268.71 74.2196 267.692 74.29H267.227C266.756 74.29 266.297 74.2548 265.861 74.1903C265.043 74.073 264.261 73.8383 263.513 73.4747C262.548 72.9995 261.783 72.3895 261.217 71.6563C260.617 70.8703 260.199 69.9259 259.958 68.829C259.828 68.1896 259.77 67.5033 259.77 66.7642C259.77 65.55 259.934 64.1891 260.264 62.6816C260.917 59.8602 262.195 56.4111 264.09 52.3227C264.908 50.5864 265.838 48.7328 266.874 46.7619C265.344 47.108 263.743 47.4248 262.065 47.7239C257.927 48.4806 253.036 49.1434 247.391 49.7183C243.383 52.8858 239.392 55.7952 235.419 58.4524C231.211 61.2739 227.338 63.5674 223.807 65.3388C221.529 66.4885 219.422 67.4036 217.497 68.0957C214.889 68.9991 212.594 69.5035 210.61 69.6208H210.281C209.039 69.5739 207.95 69.4097 207.002 69.1281C205.819 68.7527 204.86 68.1955 204.13 67.4564C203.365 66.6704 202.911 65.7201 202.764 64.6056C202.729 64.3241 202.711 64.0308 202.711 63.7199C202.711 63.0805 202.8 62.3825 202.982 61.6317C203.435 59.6784 204.565 57.989 206.372 56.5636C207.756 55.4667 209.627 54.4872 211.976 53.6366C213.795 52.9973 215.837 52.4576 218.097 52.0118C219.992 51.6188 222.076 51.2727 224.354 50.9794C227.144 50.6158 231.323 50.1817 236.897 49.6772L241.217 49.2842L245.561 48.8677C248.751 46.2751 252.177 43.3598 255.838 40.1101C263.16 33.5815 269.481 27.4225 274.802 21.633C278.228 17.8965 281.006 14.5412 283.137 11.5732C284.632 9.47322 285.732 7.6607 286.445 6.1356C286.974 4.98591 287.263 4.03565 287.322 3.27897V3.15578C287.322 2.69825 287.227 2.33458 287.051 2.07062C286.939 1.92397 286.798 1.80666 286.615 1.72454C286.45 1.64241 286.233 1.57789 285.956 1.5251L285.791 1.47817L285.326 1.43125H285.297C284.037 1.43125 282.401 1.53097 280.376 1.72454C278.375 1.9885 276.75 2.25246 275.514 2.51055C272.454 3.10299 269.305 3.98872 266.062 5.16774C259.575 7.54338 253.984 10.6522 249.281 14.4943C248.098 15.4622 246.956 16.518 245.867 17.6677C244.684 18.9464 243.719 20.1372 242.971 21.2341C242.076 22.5598 241.347 23.8737 240.787 25.17L240.405 26.2259C240.275 26.6189 240.175 26.965 240.105 27.2582L239.94 27.7979L239.828 28.3375L239.746 28.8537L239.663 29.3934C239.646 29.6046 239.634 29.8099 239.634 30.0093C239.634 30.6017 239.699 31.0827 239.822 31.4581C240.022 32.1444 240.405 32.6372 240.97 32.9363C241.441 33.2179 242.053 33.3528 242.8 33.3528H243.048C243.742 33.3352 244.507 33.2061 245.343 32.9598C246.856 32.5198 248.274 31.8687 249.605 31.0182C250.134 30.6721 250.57 30.3378 250.917 30.0093L250.782 29.8861C250.729 29.8216 250.682 29.7453 250.646 29.6632C250.576 29.5518 250.535 29.4344 250.535 29.3171C250.535 29.2526 250.546 29.1939 250.564 29.147C250.599 29.0297 250.682 28.9241 250.811 28.8244L250.894 28.7481L250.976 28.7012L251.164 28.6543C251.235 28.6367 251.3 28.6308 251.359 28.6308H251.629L251.9 28.6543L252.171 28.7012C252.259 28.7188 252.324 28.7423 252.359 28.7775L252.548 28.8537L252.601 28.8772L252.63 28.9241L252.683 28.9476L252.712 28.9945L252.765 29.0414C252.783 29.0766 252.789 29.106 252.789 29.1412V29.2174L252.765 29.2643V29.2409L252.736 29.3875V29.4638L252.706 29.4872L252.624 29.6573C252.571 29.7571 252.506 29.8568 252.43 29.9506L252.347 30.0973L252.236 30.2205C251.765 30.7601 251.105 31.3056 250.27 31.8453C248.828 32.7779 247.291 33.4877 245.649 33.9628C244.719 34.2268 243.854 34.3676 243.054 34.3793H242.806C241.841 34.3793 241.011 34.1916 240.322 33.8162C240.234 33.781 240.134 33.7282 240.022 33.6461L239.752 33.4232L239.481 33.1768L239.263 32.907L239.075 32.6137L238.91 32.3204L238.692 31.728C238.545 31.2822 238.474 30.7366 238.474 30.0797C238.474 29.8333 238.48 29.5811 238.498 29.3171L238.663 28.1381L238.933 27.006C239.022 26.6775 239.145 26.308 239.287 25.8974L239.699 24.7888C240.264 23.4279 241.017 22.0553 241.965 20.6827C242.747 19.533 243.748 18.3071 244.972 16.9931C246.102 15.8141 247.28 14.7114 248.498 13.6966C253.289 9.77824 258.993 6.60486 265.603 4.17643C268.899 2.97981 272.106 2.07648 275.22 1.47231C276.515 1.20835 278.181 0.950254 280.223 0.686294C282.301 0.486858 283.984 0.393005 285.279 0.393005H285.391C286.627 0.475126 287.616 0.821207 288.34 1.42538C289.123 2.06475 289.582 3.00914 289.705 4.25268C289.723 4.45212 289.729 4.66329 289.729 4.89205C289.729 5.82471 289.576 6.90988 289.264 8.14169C288.899 9.66679 288.281 11.4383 287.404 13.4561C285.803 17.1984 282.719 22.9938 278.169 30.8481C277.916 31.2763 277.622 31.769 277.298 32.3263L276.862 33.0888L276.427 33.8748C275.626 35.2533 274.996 36.3326 274.543 37.1245C272.995 39.7993 271.63 42.2277 270.447 44.4039L270.176 44.8732C271.471 44.5447 272.719 44.1869 273.919 43.788C278.163 42.4447 282.289 40.6322 286.297 38.3504C286.445 38.2683 286.58 38.2272 286.709 38.2272C286.874 38.2272 287.021 38.3094 287.145 38.4736C287.233 38.5909 287.28 38.6965 287.28 38.7962C287.28 38.9605 287.163 39.1071 286.927 39.2361C282.848 41.5473 278.64 43.395 274.302 44.7734C272.772 45.2662 271.171 45.7237 269.493 46.1519C268.181 48.5803 267.045 50.8152 266.079 52.8682C265.261 54.6045 264.578 56.1882 264.031 57.6136ZM234.902 56.9742C237.868 54.8743 240.929 52.569 244.084 50.0585L237.003 50.6979C231.464 51.2082 227.303 51.6423 224.513 52.0001C222.27 52.2934 220.216 52.6336 218.339 53.009C216.155 53.4489 214.165 53.9768 212.382 54.581C210.175 55.3846 208.427 56.3055 207.138 57.3379C205.537 58.6167 204.524 60.1183 204.106 61.8428C203.942 62.5174 203.859 63.1392 203.859 63.714C203.859 63.978 203.877 64.2302 203.912 64.4766C204.036 65.3799 204.407 66.1424 205.007 66.7642C205.59 67.3684 206.384 67.8318 207.385 68.1427C208.221 68.389 209.198 68.5357 210.31 68.5826H210.557C212.453 68.4653 214.654 67.9491 217.167 67.034C219.098 66.3126 221.176 65.3623 223.4 64.1833C226.897 62.3297 230.734 59.9247 234.907 56.9742H234.902ZM261.847 46.715C263.849 46.3513 265.756 45.9583 267.557 45.536C267.869 44.9435 268.192 44.3394 268.54 43.7176C269.782 41.471 271.171 39.025 272.719 36.3854C273.248 35.4821 273.896 34.391 274.661 33.1123L275.097 32.3263L275.562 31.5637C275.909 30.9713 276.197 30.4727 276.439 30.0621C281.194 22.0436 284.373 16.2775 285.974 12.7698C287.592 9.22686 288.405 6.52274 288.405 4.65156C288.405 4.48731 288.393 4.32307 288.375 4.15883V4.08258C288.246 4.78647 287.963 5.64874 287.528 6.66352C286.78 8.27074 285.644 10.1888 284.114 12.4178C281.948 15.5326 279.158 19.052 275.75 22.9704C269.846 29.6456 263.425 36.0393 256.485 42.1573C253.937 44.3863 251.412 46.5038 248.916 48.5041C253.795 47.9762 258.11 47.3778 261.841 46.7091L261.847 46.715Z" fill="#9E7C4F"/>
<path d="M321.195 11.2154C321.525 11.6553 321.725 12.1891 321.795 12.8167C321.813 12.981 321.825 13.1452 321.825 13.3094C321.825 13.6731 321.79 14.0368 321.713 14.4181C321.531 15.2569 321.048 16.1954 320.265 17.2454L319.771 17.8378C319.571 18.0842 319.4 18.2778 319.253 18.4303L318.735 18.9934L318.164 19.533C316.887 20.7472 315.286 22.0729 313.355 23.5159C311.842 24.648 310.124 25.8446 308.193 27.1057C303.167 30.3847 296.515 34.262 288.246 38.7434L286.303 41.6001C286.974 41.0076 287.587 40.509 288.134 40.0984C288.605 39.7406 289.046 39.4532 289.446 39.2362C289.717 39.0719 289.964 38.9487 290.182 38.8666C290.529 38.7376 290.836 38.6613 291.112 38.6437C291.548 38.6437 291.924 38.7669 292.23 39.0133C292.342 39.113 292.46 39.2596 292.59 39.4532L292.701 39.723L292.754 39.9694C292.79 40.1512 292.807 40.3389 292.807 40.5325C292.807 40.8786 292.76 41.254 292.672 41.6646C292.56 42.0576 292.437 42.433 292.289 42.7967C298.811 42.1397 303.955 40.6146 307.728 38.2214H307.758C307.828 38.2214 307.958 38.3504 308.14 38.6144C308.305 38.8432 308.387 38.9898 308.387 39.0543C308.387 39.0895 308.376 39.1012 308.358 39.1012C304.479 41.559 298.876 43.2366 291.554 44.1223L291.306 44.4684C290.671 45.272 289.876 45.9877 288.928 46.6094C288.458 46.9203 287.963 47.1726 287.451 47.372C286.833 47.6184 286.256 47.7474 285.727 47.765L285.674 47.7885C285.309 47.7533 285.008 47.6418 284.773 47.4424C284.52 47.2429 284.39 46.9848 284.39 46.6564V46.5332C284.39 46.2868 284.455 46.0405 284.585 45.7941C284.673 45.5829 284.832 45.3835 285.05 45.2016C285.338 44.9377 285.75 44.7089 286.28 44.5154C286.592 44.3863 286.998 44.2514 287.51 44.1223L289.393 43.6296L289.641 43.307C290.353 42.4565 290.853 41.7408 291.142 41.166C291.342 40.7378 291.442 40.38 291.442 40.0808V39.9811C291.442 39.8169 291.342 39.7172 291.142 39.6878C290.871 39.7054 290.506 39.8462 290.047 40.1043C289.7 40.3037 289.311 40.5618 288.87 40.8903C288.252 41.3478 287.504 41.9637 286.627 42.738C286.044 43.2659 285.332 43.9288 284.496 44.7324L283.896 45.3248L283.266 45.9173C282.519 46.8499 281.907 47.3192 281.436 47.3192C281.324 47.3192 281.218 47.284 281.106 47.2195C280.853 47.0904 280.724 46.8734 280.724 46.5801C280.724 46.3807 280.788 46.1519 280.912 45.8938C281.094 45.4656 281.606 44.6561 282.442 43.4595C288.363 34.7664 293.225 28.2378 297.033 23.8796C299.729 20.7824 302.278 18.2074 304.685 16.1543C306.545 14.5823 308.317 13.3036 310.012 12.3181C311.065 11.6964 312.213 11.145 313.455 10.6698C314.768 10.1771 316.163 9.8721 317.634 9.76065C317.722 9.76065 317.817 9.76652 317.905 9.78411H317.934C318.588 9.80171 319.182 9.91316 319.712 10.1302C320.33 10.359 320.824 10.7226 321.189 11.2154H321.195ZM287.887 45.4363L288.269 45.0198L287.834 45.1195C287.345 45.2662 286.974 45.3894 286.739 45.4891C286.339 45.6357 286.044 45.7941 285.862 45.9583C285.75 46.0581 285.679 46.1578 285.644 46.2516C285.609 46.2985 285.579 46.3572 285.562 46.4217C285.544 46.4863 285.538 46.539 285.538 46.5684C285.538 46.6329 285.55 46.674 285.562 46.6916C285.579 46.7092 285.615 46.7268 285.674 46.7385C286.039 46.7033 286.427 46.5684 286.851 46.322C287.198 46.0933 287.545 45.7941 287.887 45.4363ZM320.571 14.2186C320.642 13.8726 320.683 13.5558 320.683 13.2567C320.683 12.6818 320.536 12.1891 320.248 11.7785C319.794 11.1743 319 10.8517 317.87 10.8165L317.817 10.793L317.734 10.8165L317.24 10.84L316.257 10.9866L315.792 11.1098L314.862 11.3327L313.985 11.6553L313.549 11.8019L313.137 11.972L312.725 12.1715L312.313 12.3416L311.548 12.7581C311.236 12.9047 310.983 13.0455 310.783 13.1745C309.158 14.1424 307.487 15.3859 305.756 16.9169C304.391 18.1311 303.078 19.4333 301.819 20.8294C300.636 22.1081 299.511 23.4103 298.458 24.7418C296.05 27.6923 293.09 31.7104 289.576 36.796C296.827 32.8425 302.802 29.3289 307.504 26.2435C309.417 24.9999 311.118 23.8268 312.613 22.724C314.509 21.2986 316.074 19.9906 317.316 18.8115C317.97 18.2074 318.647 17.48 319.341 16.6471C320.012 15.7261 320.424 14.9167 320.571 14.2128V14.2186Z" fill="#9E7C4F"/>
<path d="M311.525 43.9346C310.265 44.4097 309.117 44.6561 308.081 44.6737H308.052C307.581 44.6737 307.175 44.615 306.851 44.5036C306.339 44.357 305.974 44.0754 305.756 43.6648C305.668 43.483 305.603 43.2894 305.568 43.0723V42.5092C305.586 42.2453 305.639 41.9461 305.733 41.6C305.88 41.1073 306.068 40.6146 306.31 40.1219C306.398 39.94 306.498 39.7465 306.61 39.5294L306.722 39.2831L306.857 39.0602C307.057 38.6847 307.275 38.4384 307.51 38.3211C307.64 38.239 307.775 38.1979 307.922 38.1979C308.122 38.1979 308.34 38.2624 308.576 38.3973C308.994 38.6085 309.205 38.849 309.205 39.113C309.205 39.1599 309.194 39.2127 309.176 39.2596C309.141 39.3593 309.064 39.4825 308.958 39.6291L308.629 40.0221C308.576 40.1219 308.476 40.2626 308.328 40.4386L308.164 40.6615L307.975 40.9079C307.663 41.3361 307.416 41.7115 307.24 42.04C307.022 42.4154 306.91 42.7204 306.91 42.9492C306.91 43.0489 306.928 43.131 306.963 43.1955C306.998 43.3246 307.11 43.436 307.293 43.5123C307.493 43.5944 307.746 43.6355 308.058 43.6355C308.952 43.6179 309.959 43.395 311.089 42.9726C311.925 42.6441 312.884 42.1866 313.961 41.5942C314.709 41.1836 315.639 40.6322 316.751 39.9459L318.117 39.1071L319.618 38.1979C319.688 38.1979 319.83 38.3269 320.03 38.5909C320.194 38.8373 320.277 38.9956 320.277 39.0602V39.0836L318.776 39.9694L317.41 40.8082C316.28 41.5121 315.333 42.0693 314.568 42.4799C313.437 43.1017 312.425 43.5885 311.536 43.9288L311.525 43.9346ZM311.389 35.57C310.642 35.57 310.271 35.2181 310.271 34.5142C310.271 33.8103 310.642 33.4818 311.389 33.4818C312.137 33.4818 312.507 33.8279 312.507 34.5142C312.507 35.2005 312.137 35.57 311.389 35.57Z" fill="#9E7C4F"/>
<path d="M334.097 38.2565C334.132 38.2389 334.162 38.2331 334.179 38.2331C334.232 38.2331 334.297 38.2565 334.368 38.3093C334.456 38.3563 334.55 38.4501 334.639 38.5792C334.709 38.6965 334.762 38.8021 334.803 38.8959V38.9722C334.803 39.0367 334.78 39.0895 334.721 39.1188C331.407 41.0369 328.217 42.6793 325.156 44.0402C324.262 44.4332 323.291 44.8497 322.231 45.2955C320.989 46.8851 319.747 48.3809 318.488 49.7711C316.845 51.5777 315.297 53.0911 313.844 54.3229C312.731 55.2731 311.666 56.0474 310.648 56.634C309.047 57.5549 307.516 58.077 306.056 58.206L305.892 58.1826H305.839C305.291 58.165 304.82 58.0594 304.42 57.86C303.926 57.6312 303.555 57.3027 303.302 56.8745C303.066 56.4463 302.949 55.9946 302.949 55.5195C302.949 55.1265 303.019 54.7159 303.167 54.2877C303.42 53.5193 303.861 52.8037 304.479 52.1467C305.009 51.6188 305.674 51.1026 306.474 50.5981C307.552 49.9412 309.047 49.2314 310.959 48.4571L313.284 47.5714L315.58 46.7091C317.328 46.0697 318.811 45.5125 320.036 45.0374C320.636 44.1692 321.366 43.1251 322.219 41.9109L321.566 42.4271C321.148 42.738 320.771 42.9902 320.448 43.1897C320.23 43.3363 320.018 43.4536 319.818 43.5357L319.653 43.612L319.459 43.6882C319.312 43.7528 319.159 43.7938 318.994 43.8114H318.964C318.599 43.8114 318.282 43.6941 318.011 43.4653C317.887 43.3656 317.775 43.2366 317.681 43.0723C317.628 42.9433 317.581 42.8025 317.546 42.6559C317.511 42.5092 317.493 42.3508 317.493 42.1866C317.493 41.9051 317.528 41.6059 317.605 41.2774C317.787 40.4386 318.134 39.6878 318.641 39.0132C319.135 38.3915 319.771 37.8401 320.554 37.3649C320.954 37.1186 321.366 36.9133 321.784 36.749C322.296 36.5496 322.778 36.4557 323.232 36.4557H323.255C323.455 36.4909 323.638 36.5555 323.803 36.6552C323.95 36.7725 324.067 36.9191 324.156 37.0951C324.268 37.3063 324.326 37.5644 324.344 37.8577V38.151C324.344 38.3621 324.332 38.5909 324.315 38.8373L324.862 38.0747L325.409 37.2652L325.627 36.9485L325.874 36.6259C326.057 36.3619 326.239 36.1566 326.422 36.0099C326.71 35.746 326.993 35.6169 327.269 35.6169C327.434 35.6169 327.599 35.6639 327.764 35.7636C328.076 35.9454 328.229 36.1801 328.229 36.4792C328.229 36.5613 328.217 36.6493 328.199 36.749C328.105 37.0306 327.829 37.5175 327.352 38.2272C325.91 40.3096 324.638 42.0986 323.526 43.5885L324.644 43.0958C327.67 41.7701 330.819 40.1512 334.097 38.2507V38.2565ZM317.098 48.8853C317.664 48.1814 318.246 47.4247 318.847 46.6211L316.004 47.677L313.708 48.5392C312.837 48.8677 312.078 49.1551 311.442 49.4015C309.582 50.1582 308.146 50.8445 307.128 51.4663C305.58 52.4165 304.632 53.4606 304.285 54.5927C304.155 54.9388 304.091 55.2497 304.091 55.5254C304.091 55.8363 304.161 56.1178 304.308 56.3642C304.603 56.8569 305.138 57.1209 305.921 57.1502H305.951C307.204 57.0505 308.529 56.5871 309.912 55.7483C310.859 55.1734 311.836 54.4343 312.837 53.5369C314.167 52.3227 315.586 50.7741 317.098 48.8853ZM320.789 41.6528L321.772 40.8668L322.755 40.0573L323.002 39.8344L323.032 39.6115L323.143 39.0484C323.179 38.7023 323.196 38.409 323.196 38.1627V37.9398C323.179 37.758 323.149 37.6289 323.114 37.5468L323.084 37.5233C322.608 37.6054 322.119 37.9398 321.607 38.5322C321.442 38.7141 321.225 38.9839 320.954 39.3417L320.624 39.7347L320.295 40.1512C319.729 40.8375 319.341 41.383 319.117 41.776C318.953 42.0869 318.864 42.3391 318.847 42.5386V42.6852L318.876 42.7087V42.7321L318.929 42.7556C319.041 42.7204 319.159 42.6793 319.282 42.6324C319.429 42.5503 319.594 42.4506 319.771 42.3391C320.065 42.1573 320.401 41.9285 320.783 41.6528H320.789Z" fill="#9E7C4F"/>
<path d="M350.984 38.2273C351.037 38.2273 351.166 38.3563 351.366 38.6203C351.531 38.8666 351.614 39.0133 351.614 39.0602V39.0837L350.054 40.0163L348.635 40.9021C347.417 41.6587 346.44 42.2395 345.71 42.6501C344.527 43.307 343.479 43.8173 342.567 44.1752C341.29 44.6679 340.136 44.9318 339.094 44.9612H338.982C338.347 44.9436 337.835 44.7911 337.452 44.4919C337.199 44.2807 337.022 44.0344 336.934 43.7528C336.846 43.5534 336.799 43.3129 336.799 43.0137C336.799 42.6559 336.846 42.2746 336.934 41.8816L336.251 42.4213C335.851 42.7322 335.486 42.9844 335.157 43.1838C334.939 43.3305 334.727 43.4478 334.527 43.5299L334.362 43.6062L334.168 43.6824C334.003 43.747 333.838 43.788 333.679 43.8056C333.314 43.8056 332.996 43.6883 332.726 43.4595C332.596 43.3598 332.49 43.2308 332.396 43.0665C332.325 42.9375 332.278 42.7967 332.261 42.6501C332.225 42.5034 332.208 42.345 332.208 42.1808C332.208 41.8992 332.243 41.6001 332.32 41.2716C332.502 40.4328 332.849 39.682 333.355 39.0074C333.85 38.3856 334.486 37.8343 335.268 37.3591C335.669 37.1128 336.081 36.9075 336.499 36.7432C337.011 36.5438 337.493 36.4499 337.946 36.4499C338.164 36.4851 338.347 36.5497 338.494 36.6494C338.659 36.7667 338.782 36.9133 338.876 37.0893C338.947 37.2359 339.006 37.3943 339.041 37.5586L339.094 37.4823C339.383 37.0248 339.689 36.6963 339.995 36.4969C340.195 36.3678 340.383 36.2974 340.566 36.2974C340.766 36.2974 340.966 36.3737 341.166 36.5203C341.496 36.7491 341.661 36.9955 341.661 37.2594C341.661 37.3415 341.643 37.4237 341.608 37.5058C341.555 37.6348 341.443 37.7932 341.278 37.975L340.842 38.5147L340.43 39.0309L340.183 39.3242L339.912 39.6702C339.477 40.2275 339.112 40.7378 338.818 41.1953C338.382 41.9344 338.135 42.5503 338.082 43.0431V43.2132C338.082 43.4243 338.135 43.5827 338.247 43.6824C338.411 43.8291 338.676 43.9112 339.041 43.9288C339.936 43.8936 340.954 43.659 342.102 43.2132C342.979 42.8671 343.968 42.3861 345.08 41.7643C345.81 41.3537 346.775 40.7789 347.976 40.0398L349.395 39.1541L350.978 38.2214L350.984 38.2273ZM335.516 41.647L336.499 40.861L337.482 40.0515L337.699 39.8286L337.752 39.6057L337.835 39.0426C337.888 38.6848 337.917 38.368 337.917 38.1099V37.9398C337.899 37.758 337.864 37.629 337.805 37.5468V37.5234C337.334 37.6055 336.84 37.9398 336.328 38.5323C336.145 38.7141 335.928 38.9839 335.675 39.3418L335.345 39.7348L335.015 40.1512C334.45 40.8375 334.062 41.383 333.838 41.7761C333.656 42.0869 333.567 42.3392 333.567 42.5386V42.7087L333.597 42.7322L333.65 42.7556C333.762 42.7204 333.868 42.6794 333.979 42.6325C334.144 42.5503 334.315 42.4506 334.497 42.3392C334.786 42.1573 335.127 41.9286 335.51 41.6529L335.516 41.647Z" fill="#9E7C4F"/>
<path d="M354.78 43.9346C353.521 44.4097 352.373 44.6561 351.337 44.6737H351.308C350.837 44.6737 350.431 44.615 350.107 44.5036C349.595 44.357 349.23 44.0754 349.012 43.6648C348.924 43.483 348.859 43.2894 348.824 43.0723V42.5092C348.841 42.2453 348.894 41.9461 348.988 41.6C349.136 41.1073 349.324 40.6146 349.565 40.1219C349.654 39.94 349.754 39.7465 349.865 39.5294L349.977 39.2831L350.113 39.0602C350.313 38.6847 350.531 38.4384 350.766 38.3211C350.896 38.239 351.031 38.1979 351.178 38.1979C351.378 38.1979 351.596 38.2624 351.831 38.3973C352.249 38.6085 352.461 38.849 352.461 39.113C352.461 39.1599 352.449 39.2127 352.432 39.2596C352.396 39.3593 352.32 39.4825 352.214 39.6291L351.884 40.0221C351.831 40.1219 351.731 40.2626 351.584 40.4386L351.419 40.6615L351.231 40.9079C350.919 41.3361 350.672 41.7115 350.495 42.04C350.277 42.4154 350.166 42.7204 350.166 42.9492C350.166 43.0489 350.183 43.131 350.219 43.1955C350.254 43.3246 350.366 43.436 350.548 43.5123C350.748 43.5944 351.001 43.6355 351.313 43.6355C352.208 43.6179 353.215 43.395 354.345 42.9726C355.18 42.6441 356.14 42.1866 357.217 41.5942C357.965 41.1836 358.894 40.6322 360.007 39.9459L361.372 39.1071L362.873 38.1979C362.944 38.1979 363.085 38.3269 363.285 38.5909C363.45 38.8373 363.533 38.9956 363.533 39.0602V39.0836L362.032 39.9694L360.666 40.8082C359.536 41.5121 358.588 42.0693 357.823 42.4799C356.693 43.1017 355.681 43.5885 354.792 43.9288L354.78 43.9346ZM354.645 35.57C353.897 35.57 353.527 35.2181 353.527 34.5142C353.527 33.8103 353.897 33.4818 354.645 33.4818C355.392 33.4818 355.763 33.8279 355.763 34.5142C355.763 35.2005 355.392 35.57 354.645 35.57Z" fill="#9E7C4F"/>
<path d="M385.746 38.2272H385.776C385.864 38.2272 385.993 38.3504 386.158 38.5968C386.305 38.808 386.376 38.9605 386.376 39.0367C386.376 39.0719 386.364 39.0954 386.346 39.113C385.434 39.6409 384.504 40.204 383.557 40.8082L382.409 41.5707L381.232 42.3098C379.484 43.4067 377.888 44.3335 376.452 45.0902C374.61 46.0756 372.897 46.8441 371.314 47.4013C369.254 48.1404 367.353 48.5275 365.604 48.5569L365.575 48.5334L365.522 48.5569C364.757 48.5217 364.092 48.3926 363.527 48.1639C362.815 47.8823 362.261 47.4776 361.861 46.9321C361.478 46.4569 361.214 45.8762 361.066 45.184C360.996 44.7734 360.955 44.3394 360.955 43.8818V43.3891C361.084 41.5179 361.714 39.3065 362.838 36.7491C364.622 32.7955 367.117 28.9124 370.325 25.0879C373.403 21.4453 376.711 18.2836 380.243 15.5912C382.338 14.0309 384.316 12.7815 386.17 11.8254C387.335 11.2506 388.454 10.793 389.531 10.4469C390.79 10.0363 392.009 9.80758 393.192 9.76065C393.28 9.76065 393.363 9.79585 393.439 9.86037C393.474 9.81344 393.527 9.78411 393.604 9.78411H393.633C394.287 9.80171 394.852 9.90729 395.328 10.1009C395.623 10.2006 395.893 10.3531 396.147 10.5701C396.4 10.7813 396.594 11.0218 396.717 11.2858C396.9 11.6318 396.988 12.0307 396.988 12.4941C396.988 12.6407 396.976 12.7874 396.965 12.934C396.929 13.198 396.871 13.4444 396.8 13.6731L396.688 14.0427C396.635 14.1893 396.576 14.3066 396.523 14.3887C395.888 15.8141 394.71 17.3979 392.998 19.1342C390.755 21.3983 387.694 23.9206 383.816 26.7127C380.849 28.8596 377.523 31.0651 373.839 33.3293C369.942 35.7578 366.476 37.7814 363.456 39.4063L363.374 39.4297L362.962 40.5384C362.561 41.7174 362.326 42.738 362.25 43.5886C362.232 43.7704 362.22 43.9522 362.22 44.1282C362.22 45.0785 362.438 45.8234 362.879 46.3689C363.427 47.0904 364.315 47.4658 365.557 47.501H365.587C367.188 47.4834 368.948 47.1315 370.861 46.4452C372.391 45.9055 374.057 45.1547 375.864 44.2045C377.265 43.4478 378.83 42.5327 380.561 41.4476L382.856 39.9694C383.804 39.3652 384.757 38.7786 385.728 38.2214L385.746 38.2272ZM367.629 31.9567C366.246 33.957 365.116 35.834 364.239 37.5879L364.127 37.8342C366.805 36.3561 369.831 34.5729 373.197 32.4729C376.841 30.2263 380.149 28.0384 383.115 25.9033C386.923 23.1463 389.931 20.6651 392.132 18.4479C393.757 16.8054 394.863 15.3331 395.464 14.0192L395.576 13.7259L395.687 13.4033C395.758 13.2215 395.805 13.0279 395.823 12.8109C395.84 12.6935 395.852 12.5821 395.852 12.4648C395.852 12.1715 395.799 11.9251 395.687 11.7257C395.417 11.1508 394.716 10.8458 393.586 10.8165C393.533 10.8165 393.474 10.7813 393.421 10.7168C393.368 10.7637 393.304 10.7989 393.227 10.8165C392.174 10.8517 391.049 11.0687 389.866 11.4793C388.866 11.843 387.818 12.324 386.723 12.9282C384.975 13.896 383.097 15.21 381.096 16.8641C378.036 19.4568 374.892 22.7123 371.667 26.6306C370.19 28.4197 368.842 30.1911 367.623 31.945L367.629 31.9567Z" fill="#9E7C4F"/>
</g>
<defs>
<clipPath id="clip0_3_66">
<rect width="397" height="77" fill="white"/>
</clipPath>
</defs>
</svg>
